<svg t="1676517535742" class="icon" viewBox="0 0 1024 1024" version="1.1" xmlns="http://www.w3.org/2000/svg" p-id="8461" width="200" height="200"><path d="M703.146667 17.066667c-6.826667-3.413333-17.066667 0-20.48 10.24-3.413333 6.826667 0 17.066667 6.826666 20.48C774.826667 105.813333 853.333333 279.893333 853.333333 409.6c0 17.066667 0 40.96-6.826666 61.44-17.066667-71.68-54.613333-139.946667-102.4-177.493333-6.826667-3.413333-17.066667-3.413333-23.893334 0-3.413333 6.826667-3.413333 17.066667 0 23.893333 27.306667 37.546667 30.72 88.746667 30.72 143.36 0 136.533333-95.573333 238.933333-221.866666 238.933333-34.133333 0-58.026667 0-81.92-6.826666 27.306667-6.826667 54.613333-20.48 81.92-30.72 37.546667-17.066667 71.68-30.72 102.4-30.72 6.826667 0 10.24-3.413333 13.653333-6.826667 3.413333-3.413333 3.413333-10.24 3.413333-13.653333s-17.066667-81.92-85.333333-81.92c-27.306667 0-40.96 6.826667-54.613333 17.066666-13.653333 10.24-30.72 17.066667-81.92 17.066667-44.373333 0-119.466667-10.24-119.466667-68.266667 0-30.72 30.72-54.613333 37.546667-54.613333 3.413333 3.413333 6.826667 3.413333 13.653333 3.413333s10.24-3.413333 13.653333-3.413333c13.653333-13.653333 13.653333-37.546667 10.24-54.613333l122.88-61.44c3.413333-6.826667 6.826667-13.653333 6.826667-20.48s-10.24-13.653333-17.066667-13.653334H443.733333c-51.2 0-85.333333-10.24-92.16-30.72-13.653333-30.72 27.306667-85.333333 54.613334-112.64 3.413333-3.413333 3.413333-10.24 3.413333-17.066666s-10.24-10.24-17.066667-10.24c-68.266667 0-105.813333 44.373333-126.293333 71.68-6.826667 0-20.48-3.413333-40.96-3.413334-10.24 0-40.96 0-58.026667 3.413334-10.24-3.413333-27.306667-23.893333-37.546666-40.96C112.64 122.88 102.4 85.333333 102.4 68.266667c0-6.826667-3.413333-13.653333-10.24-17.066667s-13.653333 0-17.066667 3.413333C20.48 109.226667 34.133333 194.56 47.786667 238.933333 6.826667 320.853333 0 430.08 0 491.52c0 279.893333 235.52 515.413333 512 515.413333 286.72 0 512-218.453333 512-494.933333v-34.133333C1024 228.693333 856.746667 64.853333 703.146667 17.066667z" fill="#d81e06" p-id="8462"></path></svg>