<?xml version="1.0" encoding="utf-8"?>
<!-- Generator: Adobe Illustrator 24.2.3, SVG Export Plug-In . SVG Version: 6.00 Build 0)  -->
<svg version="1.1" id="图层_1" xmlns="http://www.w3.org/2000/svg" xmlns:xlink="http://www.w3.org/1999/xlink" x="0px" y="0px"
	 viewBox="0 0 46 46" style="enable-background:new 0 0 46 46;" xml:space="preserve">
<style type="text/css">
	.st0{display:none;opacity:0.65;clip-path:url(#SVGID_2_);fill:#377DFF;enable-background:new    ;}
	.st1{display:none;opacity:0.5;clip-path:url(#SVGID_2_);fill:#00DFFC;enable-background:new    ;}
	.st2{display:none;opacity:0.7;clip-path:url(#SVGID_2_);fill:#377DFF;enable-background:new    ;}
	.st3{display:none;clip-path:url(#SVGID_2_);fill:#FFFFFF;}
	.st4{fill:#0697F5;}
	.st5{fill:#04CAC6;}
</style>
<g>
	<defs>
		<rect id="SVGID_1_" y="0" width="46" height="46"/>
	</defs>
	<clipPath id="SVGID_2_">
		<use xlink:href="#SVGID_1_"  style="overflow:visible;"/>
	</clipPath>
	<path class="st0" d="M23,41c-9.9,0-18-8-18-18c0-9.9,8-18,18-18h11.3C38,5,41,8,41,11.7V23C41,32.9,32.9,41,23,41z"/>
	<path class="st1" d="M28,35.9c-9.9,0-18-8-18-18c0-9.9,8-18,18-18h11.3C43,0,46,3,46,6.6V18C46,27.9,38,35.9,28,35.9z"/>
	<path class="st2" d="M18,46C8,46,0,38,0,28c0-9.9,8-18,18-18h11.3c3.7,0,6.6,3,6.6,6.6V28C35.9,38,27.9,46,18,46z"/>
	<path class="st3" d="M17.4,34V18.3h10.2v2.9h-6.4v3.4H26v2.9h-4.8V34H17.4z"/>
</g>
<g>
	<path class="st4" d="M34.7,4.5c1.4-1.4,2.9-2.9,5-3.1c3.5-0.4,6.9,3,6.2,6.5c-0.3,2.2-2,3.9-3.5,5.4c-1.7,1.6-3.2,3.4-4.9,5.1
		c-1.4,1.5-3.1,2.8-4.2,4.6c1.5,1.9,3.4,3.5,5,5.3c2.1,2.4,4.6,4.5,6.5,7.1c1.6,2.2,1.4,5.5-0.5,7.4c-2.1,2.1-6,2.4-8.1,0.1
		c-5.9-6.2-11.8-12.6-17.7-18.8c-0.4-0.5-1.1-1-0.9-1.8c0.4-0.8,1.1-1.3,1.7-2C24.5,15.2,29.6,9.9,34.7,4.5z"/>
</g>
<g>
	<path class="st5" d="M17.2,1.8c2.2-0.5,4.6-0.6,6.7,0.4c3.2,1.6,4.1,6.5,1.6,9.1c-2.3,2.8-6.5,1.6-9.3,3.6
		c-2.4,1.8-4.3,4.4-4.4,7.5c-0.5,4.8,3.1,9.5,7.9,10.3c2,0.4,4.3,0.5,5.6,2.2c2.7,2.6,1.8,7.7-1.6,9.3c-1.7,0.8-3.5,0.5-5.3,0.3
		c-5.3-0.6-10.2-3.5-13.5-7.6C1.5,32.5-0.6,27,0.2,21.5c0.2-4.7,2.2-9.2,5.2-12.8C8.4,5.2,12.7,2.9,17.2,1.8z"/>
</g>
</svg>
