<?xml version="1.0" encoding="utf-8"?>
<!-- Generator: Adobe Illustrator 24.2.3, SVG Export Plug-In . SVG Version: 6.00 Build 0)  -->
<svg version="1.1" id="图层_1" xmlns="http://www.w3.org/2000/svg" xmlns:xlink="http://www.w3.org/1999/xlink" x="0px" y="0px"
	 viewBox="0 0 46 47" style="enable-background:new 0 0 46 47;" xml:space="preserve">
<style type="text/css">
	.st0{enable-background:new    ;}
	.st1{fill:#FFFFFF;}
</style>
<g class="st0">
	<path class="st1" d="M34.7,5c1.4-1.4,2.9-2.9,5-3.1c3.5-0.4,6.9,3,6.2,6.5c-0.3,2.2-2,3.9-3.5,5.4c-1.7,1.7-3.2,3.4-4.9,5.1
		c-1.4,1.5-3.1,2.8-4.2,4.6c1.5,1.9,3.4,3.5,5,5.3c2.1,2.4,4.6,4.5,6.5,7.1c1.6,2.2,1.4,5.5-0.5,7.4c-2.1,2.1-6,2.5-8.1,0.1
		c-5.9-6.3-11.8-12.6-17.7-18.8c-0.4-0.5-1.1-1-0.9-1.8c0.4-0.8,1.1-1.3,1.7-2C24.5,15.6,29.6,10.4,34.7,5z"/>
</g>
<g class="st0">
	<path class="st1" d="M17.2,2.2c2.2-0.5,4.6-0.6,6.7,0.4c3.2,1.6,4.1,6.5,1.6,9.1c-2.3,2.8-6.5,1.6-9.3,3.6
		c-2.4,1.8-4.3,4.4-4.4,7.5c-0.5,4.8,3.1,9.5,7.9,10.3c2,0.4,4.3,0.5,5.6,2.2c2.7,2.6,1.8,7.8-1.6,9.3c-1.7,0.8-3.5,0.5-5.3,0.3
		c-5.3-0.6-10.2-3.5-13.5-7.6C1.5,33-0.6,27.5,0.2,22c0.2-4.7,2.2-9.2,5.2-12.8C8.4,5.6,12.7,3.4,17.2,2.2z"/>
</g>
</svg>
