<?xml version="1.0" encoding="utf-8"?>
<!-- Generator: Adobe Illustrator 24.2.3, SVG Export Plug-In . SVG Version: 6.00 Build 0)  -->
<svg version="1.1" id="图层_1" xmlns="http://www.w3.org/2000/svg" xmlns:xlink="http://www.w3.org/1999/xlink" x="0px" y="0px"
	 viewBox="0 0 99 104" style="enable-background:new 0 0 99 104;" xml:space="preserve">
<style type="text/css">
	.st0{fill:#FFFFFF;}
</style>
<g>
	<path class="st0" d="M62,3.5c1.4-1.5,3.1-3.1,5.3-3.3C71-0.3,74.6,3.4,74,7.1c-0.3,2.4-2.1,4.2-3.7,5.8c-1.8,1.8-3.4,3.7-5.2,5.4
		c-1.5,1.6-3.3,3-4.5,5c1.6,2.1,3.6,3.8,5.3,5.7c2.3,2.6,4.9,4.8,7,7.6c1.7,2.4,1.5,5.8-0.5,7.9c-2.2,2.3-6.5,2.6-8.6,0.1
		c-6.3-6.7-12.6-13.5-18.9-20.1c-0.4-0.5-1.2-1.1-0.9-1.9c0.5-0.8,1.2-1.4,1.8-2.1C51.1,14.8,56.6,9.2,62,3.5z"/>
</g>
<g>
	<path class="st0" d="M43.3,0.5c2.4-0.5,5-0.6,7.2,0.4c3.5,1.7,4.4,6.9,1.7,9.7c-2.5,3-7,1.7-10,3.9c-2.5,1.9-4.6,4.7-4.7,8
		c-0.5,5.1,3.4,10.2,8.4,11c2.1,0.4,4.5,0.5,6,2.3c2.9,2.8,1.9,8.3-1.7,10c-1.8,0.9-3.8,0.5-5.7,0.3c-5.6-0.6-10.9-3.7-14.4-8.1
		c-3.7-4.4-5.9-10.3-5.1-16.1c0.3-5,2.4-9.8,5.5-13.7C33.9,4.2,38.5,1.7,43.3,0.5z"/>
</g>
<g>
	<path class="st0" d="M68.4,54.7c1.4-1,3.1-0.4,4.7-0.2c0.3,4.6,0,9.1,0.1,13.7c-0.1,1,0.8,1.8,1.1,2.6c-0.2,0.9-1,1.5-1.1,2.4
		c-0.1,0.7-0.1,1.4-0.2,2.2c-1.5,0.3-3.1,0.3-4.6-0.1c-0.1-1-0.3-2.1-0.5-3.1c-2.1-0.5-4.3,0-6.4-0.4c0-0.5-0.1-1-0.1-1.6
		c1.8-0.8,4-0.1,5.9-0.5c1.6-1.4,0.6-3.8,0.7-5.6c-1.3-0.3-2.6-0.5-3.9-0.7c-0.3-0.8-0.3-1.6,0-2.4c1.3-0.1,2.7,0.5,4-0.1
		c0.1-0.9,0.3-1.9-0.2-2.7C66.7,57.5,65,58,64.1,57c-0.1-0.6-0.3-1.5,0.3-1.9C65.6,54.9,67.2,55.6,68.4,54.7z"/>
	<path class="st0" d="M3.4,54.9c0.8-0.7,2-0.5,3-0.6c1.6-0.3,2.9,1,3.8,2.1c-0.1,1.3-1.8,2-1.7,3.4C8.3,61.1,9.4,62,10.1,63
		c0.2,1.2-1.4,1.7-1.4,2.9c-0.2,3.1,0.2,6.2-0.2,9.3c-2.3,0.6-4.7,0.2-7.1,0.3c-0.1-0.6-0.2-1.2-0.2-1.8c0.7-0.3,1.3-0.5,2-0.8
		c0.3-2,0.2-4.1,0-6.1c-0.7-0.1-1.4-0.2-2.1-0.4c0-0.6-0.1-1.1-0.1-1.7c0.9-0.5,2.3-0.7,2.3-2c0.1-1.5,0.1-3-0.1-4.4
		c-0.4-0.7-1.5-0.6-2.2-1c0-0.5,0-0.9,0-1.4C1.8,55.8,2.7,55.5,3.4,54.9z"/>
	<path class="st0" d="M42,57.3c2.3-1.1,4.5-2,6.8-3.2c0.6,0.9,0.6,2,0.3,3c-0.4,1.1-1.8,1.3-2.8,1.8c-1.7,0.6-3.2,1.8-5.1,2
		C41.4,59.8,40.7,58,42,57.3z"/>
	<path class="st0" d="M75.5,56.2c1.2-0.3,2.6-0.5,3.1-1.8c1.1,0,2.2-0.1,3.4,0c1.3,0,1.8,1.6,3,1.7c1.8,0.3,3.6-0.6,5-1.6
		c1.2-0.2,2.5-0.2,3.7,0c0.6,0.4,1.1,1,1.8,1.3c1.2,0.1,2.4,0,3.5,0.3c0,0.6,0,1.2,0,1.8c-1.5,0.5-3.3-0.4-4.5,0.8
		c0.1,0.2,0.2,0.7,0.3,1c1.3,0.1,2.6,0.1,3.8,0.3c0.6,2.1-1.3,3.6-1.5,5.6c-0.6,2.9,0.8,5.7,1.5,8.5c0.1,0.5,0.3,1.2-0.3,1.4
		c-1.1,0.5-2.3,0.2-3.4,0c-0.6,0-0.6-0.7-0.8-1.1c-0.7-2.4-1.1-4.9-2-7.3c-0.6,2.2-1.1,4.4-1.7,6.6c-0.5,2.1-3.2,2.2-4.9,1.9
		c0-2.9,1.6-5.6,1.9-8.5c0.2-1.5-0.8-2.7-1-4.1c1.3-0.1,2.8-0.6,3.9,0.3c0.8,0.9,1.2,1.9,1.9,2.8c0.7-1.1,1.2-2.3,1.4-3.6
		c-2.5-0.9-5.2-0.2-7.7-0.5c-0.1-0.6-0.1-1.3,0-1.9c1.1-0.2,2.2-0.3,3.3-0.4c0.2-0.6,0.3-1.4-0.5-1.5c-1.6-0.2-3.4-0.7-4.9,0
		c-0.5,1-0.4,2.1-0.4,3.2c0.6,0.6,1.5,1,1.9,1.9c-0.3,0.9-1.4,1.4-1.7,2.4c-0.4,3.2,0.2,6.4-0.3,9.6c-0.1,0.1-0.4,0.3-0.5,0.4
		c-2.3,0-4.6,0.2-6.9-0.1c-0.1-0.6,0-1.2,0.1-1.8c0.7-0.2,1.4-0.4,2.1-0.6c0.3-2,0.3-4.1,0-6.2c-0.8-0.1-1.6-0.3-2.4-0.4
		c0-0.6,0-1.2,0.1-1.8c0.7-0.3,1.6-0.4,2.1-1c0.4-0.5,0.4-1.3,0.4-1.9c0-1.2,0.1-2.5-0.4-3.6c-0.7-0.1-1.3-0.1-2-0.2
		C75.5,57.4,75.5,56.8,75.5,56.2z"/>
	<g>
		<path class="st0" d="M10.7,55c3.2-0.5,6.5-0.1,9.8-0.2c1.2,0.1,2.6-0.3,3.5,0.5c0.1,0.6,0.2,1.6-0.6,1.7c-1.1,0.1-2.2,0-3.2,0.2
			c-0.6,0.5-0.6,1.6,0.1,2.1c1.4,0.2,2.9,0,4.3,0.4c-0.1,0.6,0,1.4-0.5,1.8c-1.4,0.3-2.8,0-4.2,0.4c0,0.6-0.3,1.4,0.3,1.8
			c1.2,0.4,2.5,0.3,3.6,0.8c0.3,2.3,0.1,4.5,0.2,6.8c0,1.4,0.2,2.9-0.4,4.3c-3.2,0.1-6.4,0-9.6,0.1c-1,0-2,0-3-0.2
			c-0.3-1.9-0.1-3.8-0.1-5.7c0-1.9-0.2-3.8,0.2-5.7c1.2-0.3,2.6,0.1,3.6-0.8c0-0.5,0-1.1-0.1-1.6c-1.2-0.2-2.5-0.1-3.7-0.2
			c-0.7-0.4-0.4-1.3-0.5-1.9c1.3-0.3,2.6-0.2,3.9-0.4c0.7-0.5,0.3-1.3,0.2-2C13.2,57,12,57,10.8,56.9C10.7,56.3,10.7,55.7,10.7,55z
			 M16.5,66.1c-0.6,0.2-0.6,0.9-0.6,1.4c0,1.6-0.1,3.3,0.1,4.9c0,1.6,3.1,1.6,2.9,0c0-2,0.1-3.9,0-5.9
			C18.3,65.8,17.2,65.9,16.5,66.1z"/>
	</g>
	<path class="st0" d="M26.7,57.2c-1.2,0-1.2-2.3,0-2.3c3.7-0.2,7.3,0,11-0.1c1,0.1,2.2-0.1,3,0.5c0.7,0.6,0.1,1.4-0.2,2
		c-0.6,1-0.7,2.3-1.2,3.3c-0.9,0.8-2.6,1.4-3.4,0.2c0.1-1.2,0.4-2.3,0.2-3.5C32.9,57.1,29.8,57.4,26.7,57.2z"/>
	<path class="st0" d="M51,55c2-0.2,4.1-0.1,6.1-0.2c1.9,0,3.8-0.1,5.6,0.2c0,0.6,0,1.2-0.1,1.8c-0.8,0.2-1.7,0.1-2.3,0.7
		c0,0.3,0.1,0.9,0.1,1.2c0.7,0.1,1.4,0.2,2.1,0.3c0.3,0.7,0.3,1.3,0,2c-0.8,0.1-1.5,0.2-2.3,0.4c0,0.2,0,0.7,0,0.9
		c0.7,0.3,1.6,0.3,2.2,0.8c0.1,0.5,0.1,0.9,0.1,1.4c-0.8,0.2-1.5,0.5-2.3,0.8c-0.3,3.1,0.1,6.2-0.2,9.3c0,0.7-0.7,0.9-1.2,0.9
		c-1.3,0.1-2.7,0.1-4-0.3c-0.2-3.4,0.1-6.8-0.1-10.2c-0.3,0-0.8,0.1-1.1,0.2c-0.2,3.4,0.1,6.8-0.2,10.2c-0.8,0.2-1.7,0.4-2.4-0.2
		c0-0.5,0-1.1,0-1.6c0-3.2,0-6.4,0-9.5c-0.1-0.7,0.5-1.4,1.2-1.3c0.8,0,1.7,0,2.5-0.1c0-0.3,0-1,0-1.3c-1.3-0.4-2.8-0.1-4.2-0.4
		c-0.1-0.7,0-1.3,0.2-1.9c1.4,0,2.7,0,4.1-0.2c0-0.5-0.1-1-0.1-1.5C53.6,57,52.3,57,51.1,57C50.9,56.3,50.9,55.6,51,55z"/>
	<path class="st0" d="M26.6,58c1,0,2.3-0.2,3.1,0.7c0.7,0.6,0.7,1.7,0.6,2.5c-1.1,0-2.6,0.4-3.3-0.6C26.3,59.9,26.4,58.9,26.6,58z"
		/>
	<path class="st0" d="M31.3,58c1-0.1,2.2-0.2,2.9,0.7c0.5,0.8,0.4,1.7,0.4,2.6c-1.1,0-2.4,0.3-3.2-0.6C30.9,60,30.6,58.7,31.3,58z"
		/>
	<path class="st0" d="M42.3,63.7c2.3-0.8,4.4-2.2,6.8-2.8c0.2,1.4,0.7,3.4-1,4c-2.4,0.9-4.6,2.2-7,2.9
		C40.7,66.4,40.7,64.4,42.3,63.7z"/>
	<path class="st0" d="M31.1,62c1-0.3,2.1-0.1,3.1,0c0.8,0.1,1.1,1.1,1.7,1.5c1.4,0.4,3-0.1,4.4,0.5c0.1,1.1-0.5,1.9-1.3,2.5
		c0.2,2.8,0.7,5.6,0.9,8.4c-1.1,0.3-3.3,0.8-3.4-0.9c-0.3-2.6-0.5-5.1-0.9-7.7c-0.1-0.1-0.4-0.2-0.6-0.3c-0.1,2.6-0.1,5.2,0,7.7
		c0,0.6,0,1.4-0.7,1.6c-1.1,0.2-2.2,0.1-3.3-0.2c-0.5-2.9,0-5.9-0.3-8.8c-0.1-0.2-0.2-0.5-0.3-0.7c-0.5,2.8-0.5,5.6-1,8.4
		c-0.3,1.7-3.7,1.7-3.4-0.2c0.2-2.3,0.6-4.5,0.8-6.8c0.1-0.8-0.6-1.3-0.9-2c0.1-0.4,0.2-0.9,0.3-1.3c1.2-0.1,2.4-0.1,3.7-0.1
		C30.1,63.2,30.5,62.5,31.1,62z"/>
	<path class="st0" d="M44.4,69.9c1.6-0.6,3.1-1.7,4.8-1.9c0,1.3,0.7,3.3-0.8,4c-2.4,1.1-4.8,2.2-7.2,3.2c-0.6-1-0.6-2.3-0.1-3.4
		C41.7,70.7,43.2,70.5,44.4,69.9z"/>
	<path class="st0" d="M13.2,81.5c0.7-0.2,1.7-0.5,2.2,0.2c0.1,2.9-0.1,5.7,0,8.6c0.1,1.2,0.8,2.5,2.1,2.7c1.6,0.5,3.2-0.8,3.3-2.4
		c0.3-3.1,0-6.3,0.2-9.4c0.7,0,1.3,0,2,0c0.1,3.1,0.1,6.2,0,9.4c-0.1,2.8-2.8,5.1-5.6,4.6c-2.4-0.2-4.3-2.6-4.3-5
		C13.1,87.4,13.2,84.4,13.2,81.5z"/>
	<g>
		<path class="st0" d="M30.2,81.4c3.8-1,8,1.7,8.6,5.5c1,4.1-2.6,8.5-6.8,8.4c-3.8,0.2-7.2-3.2-7.2-6.9C24.5,85.1,27,82,30.2,81.4z
			 M30.5,83.5c-2.1,0.5-3.6,2.4-3.7,4.5c-0.3,3.1,2.9,5.8,5.9,5.1c2.8-0.4,4.6-3.5,3.8-6.2C35.9,84.4,33,82.8,30.5,83.5z"/>
	</g>
	<path class="st0" d="M39.9,88.8c-0.6-4.6,4.2-8.7,8.7-7.5c1.1,0.3,0.7,1.6,0.8,2.4c-1.5-0.3-3.1-0.8-4.5,0c-3,1.3-3.8,5.7-1.4,7.9
		c1.5,1.6,3.9,1.6,5.8,1c0,0.8,0,1.5,0,2.3C45.1,96.5,40.1,93.3,39.9,88.8z"/>
	<g>
		<path class="st0" d="M58.7,82c0.5-1,1.8-0.7,2.8-0.6c0.5,2.7,0.1,5.5,0.3,8.2c0,1.9,0.1,3.8-0.2,5.6c-0.7,0-1.3,0-2-0.1
			c-0.1-1,0.4-2.2-0.5-2.9c-1.4-0.3-2.9-0.4-4.2,0.2c-1.1,0.6-1.4,1.9-2.2,2.8c-0.8,0.1-1.6,0.1-2.4,0.1
			C53.1,90.8,55.8,86.3,58.7,82z M56.4,89.8c1.1,0.1,2.1,0.1,3.2,0c0-1.5,0.1-3,0-4.5C58.2,86.5,57.2,88.2,56.4,89.8z"/>
	</g>
	<path class="st0" d="M64.2,81.3c0.6,0,1.2,0,1.9,0c0.4,1.8,0.1,3.7,0.2,5.5c0,2.8,0.1,5.5-0.1,8.3c-0.7,0.1-1.3,0.1-2,0
		C64.1,90.5,64,85.9,64.2,81.3z"/>
	<path class="st0" d="M68.7,81.3c0.6,0,1.3,0,1.9,0c0.2,1.9,0,3.7,0.2,5.6c1.6-1.5,2.7-3.5,4.2-5c0.8-0.8,2-0.6,3-0.6
		c-1.4,2.2-3.3,4-4.6,6.2c-0.5,0.9,0.3,1.7,0.8,2.4c1.3,1.8,3,3.2,4,5.2c-1,0-2.4,0.2-3.1-0.7c-0.9-1-1.6-2.2-2.6-3.2
		c-0.4-0.4-0.8-1.3-1.6-0.9c-0.4,1.5-0.1,3.2-0.3,4.7c-0.6,0-1.3,0-1.9,0c-0.2-2.4,0-4.7-0.1-7.1C68.6,85.8,68.4,83.6,68.7,81.3z"/>
	<path class="st0" d="M80.2,81.4c2.3-0.1,4.6,0,6.9,0c0.1,0.6,0.1,1.3,0.1,1.9c-1.2,0.2-2.5,0.1-3.7,0.2c-1.3-0.2-1.3,1.7-1.2,2.6
		c0.3,1.7,2.4,0.9,3.7,1c0.1,0.8,0.1,1.5,0,2.3c-1.2,0-2.4,0-3.6,0.1c-0.1,1.2-0.1,2.4,0.1,3.6c1.6,0.1,3.2,0,4.8,0.1
		c0.1,0.6,0.1,1.3,0,2c-2.3,0.1-4.6,0.1-7,0c-0.2-2.5,0-5-0.1-7.5C80.1,85.5,79.9,83.4,80.2,81.4z"/>
	<path class="st0" d="M90.4,82c-0.1-1,1.3-0.8,2-0.6c0.3,0.5,0.2,1.1,0.3,1.7c-0.1,2.4,0,4.9-0.1,7.3c0,1.3-0.4,2.7-1.4,3.6
		c-0.8,0.9-2.1,1.2-3.3,1.6c-0.2-0.7-0.4-1.4-0.5-2.1c1.1-0.5,2.6-1,2.8-2.4C90.5,88,90.2,85,90.4,82z"/>
	<path class="st0" d="M94,81.5c0.7-0.2,1.4-0.2,2.1-0.1c0.1,4.6,0.1,9.2,0,13.7c-0.7,0-2.1,0.5-2.1-0.6C94,90.2,94,85.8,94,81.5z"/>
	<path class="st0" d="M1.6,81.5c0.7-0.2,1.4-0.2,2.1,0c0.1,1.8,0,3.7,0.1,5.5c1.6-1.5,2.7-3.4,4.2-5c0.8-0.9,2-0.5,3.1-0.5
		c-1.5,2.1-3.3,4-4.8,6.1c-0.5,0.6-0.1,1.3,0.3,1.8c1.6,1.8,3.2,3.7,4.7,5.7c-1.1,0.2-2.5,0.4-3.3-0.6c-1.2-1.4-2.2-3-3.5-4.2
		c-0.2,0-0.5,0.1-0.6,0.2c-0.4,1.5-0.1,3.2-0.3,4.7c-0.6,0-1.3,0-1.9,0C1.5,90.6,1.6,86,1.6,81.5z"/>
</g>
</svg>
